<svg width="368" height="298" viewBox="0 0 368 298" fill="none" xmlns="http://www.w3.org/2000/svg">
<path d="M54.0879 215.875V250.148C54.0879 251.779 54.735 253.34 55.8866 254.491L76.809 275.414C77.9606 276.566 79.5253 277.209 81.1522 277.209H115.426C134.546 286.97 156.192 292.476 179.129 292.476C202.066 292.476 223.716 286.97 242.832 277.209H277.106C278.736 277.209 280.297 276.562 281.445 275.414L302.371 254.491C303.519 253.34 304.166 251.779 304.166 250.148V215.875C313.928 196.758 319.43 175.105 319.43 152.171C319.43 129.238 313.928 107.585 304.166 88.4683V54.191C304.166 52.5641 303.519 51.0031 302.371 49.8515L281.445 28.929C280.294 27.7775 278.736 27.1304 277.106 27.1304H242.832C223.716 17.3692 202.066 11.8635 179.129 11.8635C156.192 11.8635 134.546 17.3692 115.426 27.1304H81.1522C79.5216 27.1304 77.9606 27.7775 76.809 28.929L55.8866 49.8515C54.735 51.0031 54.0879 52.5641 54.0879 54.191V88.4683C44.3304 107.585 38.821 129.238 38.821 152.171C38.821 175.105 44.3304 196.758 54.0879 215.875" fill="#FFB26E"/>
<path d="M54.0879 215.875V250.148C54.0879 251.779 54.735 253.34 55.8866 254.491L76.809 275.414C77.9606 276.566 79.5253 277.209 81.1522 277.209H115.426C134.546 286.97 156.192 292.476 179.129 292.476C202.066 292.476 223.716 286.97 242.832 277.209H277.106C278.736 277.209 280.297 276.562 281.445 275.414L302.371 254.491C303.519 253.34 304.166 251.779 304.166 250.148V215.875C313.928 196.758 319.43 175.105 319.43 152.171C319.43 129.238 313.928 107.585 304.166 88.4683V54.191C304.166 52.5641 303.519 51.0031 302.371 49.8515L281.445 28.929C280.294 27.7775 278.736 27.1304 277.106 27.1304H242.832C223.716 17.3692 202.066 11.8635 179.129 11.8635C156.192 11.8635 134.546 17.3692 115.426 27.1304H81.1522C79.5216 27.1304 77.9606 27.7775 76.809 28.929L55.8866 49.8515C54.735 51.0031 54.0879 52.5641 54.0879 54.191V88.4683C44.3304 107.585 38.821 129.238 38.821 152.171C38.821 175.105 44.3304 196.758 54.0879 215.875" stroke="white" stroke-width="2" stroke-linecap="round" stroke-linejoin="round"/>
<path d="M215.377 104.919C217.205 109.27 218.539 111.208 217.567 114.118C216.598 117.028 211.14 127.333 207.988 127.94C204.837 128.547 201.441 127.352 201.441 127.352L215.377 104.919Z" fill="#FFB26E" stroke="black" stroke-width="1.2" stroke-linecap="round" stroke-linejoin="round"/>
<path d="M130.181 213.009L130.565 221.486L163.712 198.261L163.332 189.783L130.181 213.009Z" fill="black" stroke="black" stroke-width="1.2" stroke-linecap="round" stroke-linejoin="round"/>
<path d="M121.239 219.048L121.619 227.53L88.4713 250.752L88.0911 242.274L121.239 219.048Z" fill="black" stroke="black" stroke-width="1.2" stroke-linecap="round" stroke-linejoin="round"/>
<path d="M79.8141 248.445L80.1943 256.923L47.0431 280.148L46.6628 271.667L79.8141 248.445Z" fill="black" stroke="black" stroke-width="1.2" stroke-linecap="round" stroke-linejoin="round"/>
<path d="M26 252.287L26.3802 260.765L47.0431 280.148L46.6629 271.667L26 252.287Z" fill="#FFB26E" stroke="black" stroke-width="1.2" stroke-linecap="round" stroke-linejoin="round"/>
<path d="M49.4303 214.134L49.05 205.656L88.0909 242.274L88.4711 250.751L49.4303 214.134Z" fill="#FFB26E" stroke="black" stroke-width="1.2" stroke-linecap="round" stroke-linejoin="round"/>
<path d="M66.7188 161.604L66.3386 153.122L130.181 213.009L130.565 221.487L66.7188 161.604Z" fill="#FFB26E" stroke="black" stroke-width="1.2" stroke-linecap="round" stroke-linejoin="round"/>
<path d="M79.8141 248.445L46.6629 271.667L26 252.287L59.1476 229.061L79.8141 248.445Z" fill="white" stroke="black" stroke-width="1.2" stroke-linecap="round" stroke-linejoin="round"/>
<path d="M121.239 219.048L88.0909 242.274L49.05 205.657L82.1977 182.431L121.239 219.048Z" fill="white" stroke="black" stroke-width="1.2" stroke-linecap="round" stroke-linejoin="round"/>
<path d="M163.332 189.783L130.181 213.008L66.3386 153.122L99.4862 129.9L163.332 189.783Z" fill="white" stroke="black" stroke-width="1.2" stroke-linecap="round" stroke-linejoin="round"/>
<path d="M337.645 119.461L280.012 69.3623C278.012 67.6231 274.98 67.8351 273.24 69.8358L243.528 104.016C241.789 106.016 242.001 109.048 244.002 110.788L301.634 160.886C303.635 162.626 306.667 162.414 308.406 160.413L338.118 126.233C339.857 124.232 339.645 121.2 337.645 119.461Z" fill="white"/>
<path d="M286.688 114.366C287.295 117.053 289.689 121.663 301.662 123.352C313.635 125.041 332.061 126.624 332.061 126.624C332.061 126.624 308.579 157.392 305.362 159.326C302.145 161.26 299.114 158.679 299.114 158.679C299.114 158.679 303.859 164.923 308.418 160.408C311.08 157.772 338.999 124.752 338.999 124.752L338.773 123.345L292.936 119.049L290.691 118.497L286.688 114.366V114.366Z" fill="#FFB26E"/>
<path d="M337.645 119.461L280.012 69.3623C278.012 67.6231 274.98 67.8351 273.24 69.8358L243.528 104.016C241.789 106.016 242.001 109.048 244.002 110.788L301.634 160.886C303.635 162.626 306.667 162.414 308.406 160.413L338.118 126.233C339.857 124.232 339.645 121.2 337.645 119.461Z" stroke="black" stroke-width="1.2" stroke-linecap="round" stroke-linejoin="round"/>
<path d="M275.896 68.2842L286.388 112.622C287.236 116.201 290.271 118.837 293.93 119.177L339.299 123.392" stroke="black" stroke-width="1.2" stroke-linecap="round" stroke-linejoin="round"/>
<path d="M242.379 106.843L285.628 109.413" stroke="black" stroke-width="1.2" stroke-linecap="round" stroke-linejoin="round"/>
<path d="M297.217 119.485L304.539 162.046" stroke="black" stroke-width="1.2" stroke-linecap="round" stroke-linejoin="round"/>
<path d="M150.394 296C155.551 296 159.731 291.82 159.731 286.663C159.731 281.506 155.551 277.326 150.394 277.326C145.237 277.326 141.057 281.506 141.057 286.663C141.057 291.82 145.237 296 150.394 296Z" fill="black" stroke="black" stroke-width="1.2" stroke-linecap="round" stroke-linejoin="round"/>
<path d="M221.449 269.506C226.606 269.506 230.786 265.326 230.786 260.169C230.786 255.012 226.606 250.832 221.449 250.832C216.292 250.832 212.112 255.012 212.112 260.169C212.112 265.326 216.292 269.506 221.449 269.506Z" fill="black" stroke="black" stroke-width="1.2" stroke-linecap="round" stroke-linejoin="round"/>
<path d="M237.937 153.594C243.094 153.594 247.274 149.413 247.274 144.256C247.274 139.1 243.094 134.919 237.937 134.919C232.78 134.919 228.6 139.1 228.6 144.256C228.6 149.413 232.78 153.594 237.937 153.594Z" fill="black" stroke="black" stroke-width="1.2" stroke-linecap="round" stroke-linejoin="round"/>
<path d="M281.5 185.604C286.657 185.604 290.837 181.424 290.837 176.267C290.837 171.111 286.657 166.93 281.5 166.93C276.343 166.93 272.163 171.111 272.163 176.267C272.163 181.424 276.343 185.604 281.5 185.604Z" fill="black" stroke="black" stroke-width="1.2" stroke-linecap="round" stroke-linejoin="round"/>
<path d="M300.174 144.257C305.331 144.257 309.511 140.076 309.511 134.92C309.511 129.763 305.331 125.583 300.174 125.583C295.018 125.583 290.837 129.763 290.837 134.92C290.837 140.076 295.018 144.257 300.174 144.257Z" fill="black" stroke="black" stroke-width="1.2" stroke-linecap="round" stroke-linejoin="round"/>
<path d="M150.394 286.663L174.281 225.431L221.449 260.169L237.937 144.256L281.5 176.267L300.174 134.919" stroke="black" stroke-width="1.2" stroke-linecap="round" stroke-linejoin="round"/>
<path d="M328.61 194.916L328.602 184.57C328.602 184.57 320.848 188.109 313.204 191.611L168.962 177.664C167.31 177.503 165.646 177.865 164.21 178.698L86.647 223.647L75.4527 221.037V231.204C75.4454 231.299 75.4454 231.394 75.4527 231.485V231.522H75.4564C75.5332 232.407 76.1437 233.244 77.1929 233.423L247.205 262.604C249.552 263.006 251.954 262.337 253.752 260.78L327.871 196.601C328.405 196.14 328.628 195.519 328.595 194.919H328.606L328.61 194.916Z" fill="#FFB26E"/>
<path d="M81.0205 223.673L81.0534 234.095L76.107 232.885L75.4563 231.481L75.4453 221.954L81.0205 223.673Z" fill="white"/>
<path d="M82.9033 223.647L82.9508 234.161L85.1626 234.457L85.1553 223.954L82.9033 223.647Z" fill="white"/>
<path d="M328.61 194.916L328.602 184.57C328.602 184.57 320.848 188.109 313.204 191.611L168.962 177.664C167.31 177.503 165.646 177.865 164.21 178.698L86.647 223.647L75.4527 221.037V231.204C75.4454 231.299 75.4454 231.394 75.4527 231.485V231.522H75.4564C75.5332 232.407 76.1437 233.244 77.1929 233.423L247.205 262.604C249.552 263.006 251.954 262.337 253.752 260.78L327.871 196.601C328.405 196.14 328.628 195.519 328.595 194.919H328.606L328.61 194.916Z" stroke="black" stroke-width="1.2" stroke-linecap="round" stroke-linejoin="round"/>
<path d="M315.364 196.948L268.898 237.185L253.756 249.75C251.954 251.304 249.548 251.976 247.201 251.57L185.019 241.444L174.186 239.583L172.654 239.32L77.1928 222.934C75.2516 222.601 74.7873 220.024 76.4873 219.037L147.959 177.616L207.173 184.453L223.515 186.339L315.357 196.941L315.364 196.948Z" fill="#FFB26E" stroke="black" stroke-width="1.2" stroke-linecap="round" stroke-linejoin="round"/>
<path d="M249.863 252.232V262.527L251.881 261.986L328.259 196.159L328.61 193.983L328.606 185.604L253.058 250.832L251.398 251.863L249.863 252.232Z" fill="black"/>
<path d="M247.76 252.4V262.885L245.899 262.527V252.119L247.76 252.4Z" fill="black"/>
<path d="M327.878 186.116L315.368 196.948L147.97 177.623L164.213 168.21C165.65 167.38 167.313 167.014 168.966 167.179L326.701 182.431C328.544 182.61 329.275 184.91 327.878 186.12V186.116Z" fill="white" stroke="black" stroke-width="1.2" stroke-linecap="round" stroke-linejoin="round"/>
<path d="M265.48 240.113L253.756 249.75C251.954 251.304 249.548 251.976 247.201 251.57L174.19 239.583L236.442 206.881C248.162 223.165 265.477 240.109 265.477 240.109L265.48 240.113Z" fill="black" stroke="black" stroke-width="1.2" stroke-linecap="round" stroke-linejoin="round"/>
<path d="M236.445 206.885C236.445 206.885 232.483 217.352 212.116 231.156C201.51 238.347 191.998 240.873 185.026 241.447L174.194 239.587L172.662 239.323C169.894 234.658 160.217 211.85 160.217 211.85L207.188 184.46L218.908 177.624C223.804 187.454 229.752 197.201 236.449 206.885H236.445Z" fill="white" stroke="black" stroke-width="1.2" stroke-linecap="round" stroke-linejoin="round"/>
<path d="M218.901 177.62C218.901 177.62 203.218 144.593 190.769 126.485C178.321 108.378 153.425 125.78 147.118 140.765C140.812 155.75 152.58 190.262 154.324 195.511C156.741 202.787 160.214 211.85 160.214 211.85C160.214 211.85 173.631 217.83 196.915 201.986C220.195 186.142 218.901 177.62 218.901 177.62Z" fill="#FFB26E"/>
<path d="M154.558 178.062C157.79 197.625 163.712 212.712 163.712 212.712L160.627 212.822L149.656 181.546L154.554 178.062H154.558Z" fill="white"/>
<path d="M218.901 177.62C218.901 177.62 203.218 144.593 190.769 126.485C178.321 108.378 153.425 125.78 147.118 140.765C140.812 155.75 152.58 190.262 154.324 195.511C156.741 202.787 160.214 211.85 160.214 211.85C160.214 211.85 173.631 217.83 196.915 201.986C220.195 186.142 218.901 177.62 218.901 177.62Z" stroke="black" stroke-width="1.2" stroke-linecap="round" stroke-linejoin="round"/>
<path d="M221.769 210.568C224.104 209.22 224.563 205.645 222.795 202.584C221.028 199.522 217.702 198.132 215.368 199.48C213.034 200.828 212.574 204.402 214.342 207.464C216.11 210.526 219.435 211.915 221.769 210.568Z" fill="black" stroke="black" stroke-width="1.2" stroke-linecap="round" stroke-linejoin="round"/>
<path d="M190.769 126.485C167.489 138.612 164.173 175.715 155.326 180.201C148.84 183.491 142.589 180.321 141.7 175.47C140.812 170.619 163.851 115.116 163.851 115.116L190.769 126.485V126.485Z" fill="#FFB26E" stroke="black" stroke-width="1.2" stroke-linecap="round" stroke-linejoin="round"/>
<path d="M157.157 146.933C151.728 155.345 149.546 173.207 150.756 177.009C151.97 180.808 153.794 180.863 153.794 180.863C153.794 180.863 150.021 182.548 146.877 180.863C143.733 179.177 142.154 176.932 142.154 176.932L147.312 153.59L151.001 143.061L156.741 138.765L157.157 146.933V146.933Z" fill="black"/>
<path d="M143.836 138.769C131.435 143.463 130.141 176.918 139.591 177.514C147.312 178 142.753 164.17 148.329 151.926C153.907 139.679 143.832 138.769 143.832 138.769H143.836Z" fill="#FFB26E"/>
<path d="M135.358 156.679C136.933 173.412 140.063 177.85 141.108 177.393C142.154 176.933 138.842 178.366 137.343 176.625C135.844 174.885 134.575 173.719 133.764 168.436C132.89 162.733 134.038 155.476 134.038 155.476L135.358 156.679Z" fill="white"/>
<path d="M143.836 138.769C131.435 143.463 130.141 176.918 139.591 177.514C147.312 178 142.753 164.17 148.329 151.926C153.907 139.679 143.832 138.769 143.832 138.769H143.836Z" stroke="black" stroke-width="1.2" stroke-linecap="round" stroke-linejoin="round"/>
<path d="M145.29 129.673C132.89 134.367 130.872 166.744 140.209 168.319C149.546 169.895 144.212 155.078 149.787 142.831C155.366 130.584 145.29 129.673 145.29 129.673Z" fill="#FFB26E"/>
<path d="M141.309 135.822C137.419 146.976 138.754 162.62 140.209 165.164C141.664 167.712 142.644 168.301 142.644 168.301C142.644 168.301 139.927 169.537 137.705 166.926C135.482 164.316 134.502 164.506 134.447 152.164C134.389 139.822 140.081 133.899 140.081 133.899L142.157 131.607L141.313 135.819L141.309 135.822Z" fill="white"/>
<path d="M145.29 129.673C132.89 134.367 130.872 166.744 140.209 168.319C149.546 169.895 144.212 155.078 149.787 142.831C155.366 130.584 145.29 129.673 145.29 129.673Z" stroke="black" stroke-width="1.2" stroke-linecap="round" stroke-linejoin="round"/>
<path d="M149.655 123.396C139.722 124.307 134.264 161.048 143.601 162.624C152.938 164.199 148.573 148.801 154.152 136.554C159.731 124.307 149.655 123.396 149.655 123.396Z" fill="#FFB26E"/>
<path d="M147.312 128.112C140.209 143.218 141.309 151.707 142.702 157.041C143.528 160.207 146.069 162.587 146.069 162.587C146.069 162.587 144.208 163.611 141.675 162.046C139.141 160.478 138.031 153.882 139 146C139.969 138.118 142.559 129.062 144.5 127C146.441 124.938 148.939 122.972 148.939 122.972L147.312 128.112Z" fill="white"/>
<path d="M149.655 123.396C139.722 124.307 134.264 161.048 143.601 162.624C152.938 164.199 148.573 148.801 154.152 136.554C159.731 124.307 149.655 123.396 149.655 123.396Z" stroke="black" stroke-width="1.2" stroke-linecap="round" stroke-linejoin="round"/>
<path d="M154.759 115.119C147.312 120.183 140.209 144.805 148.939 144.797C158.905 144.79 162.275 123.7 169.309 116.666C176.343 109.632 154.759 115.119 154.759 115.119Z" fill="#FFB26E"/>
<path d="M157.815 117.273C150.84 125.517 148.614 135.877 148.939 139.826C149.264 143.774 150.453 144.622 150.453 144.622C150.453 144.622 146.862 146.94 145.089 140.714C143.316 134.488 150.39 119.338 150.39 119.338L152.854 116.863L157.812 117.269L157.815 117.273Z" fill="white"/>
<path d="M154.759 115.119C147.312 120.183 140.209 144.805 148.939 144.797C158.905 144.79 162.275 123.7 169.309 116.666C176.343 109.632 154.759 115.119 154.759 115.119Z" stroke="black" stroke-width="1.2" stroke-linecap="round" stroke-linejoin="round"/>
<path d="M191.095 159.308C178.321 150.899 164.816 128.975 160.451 127.52C156.086 126.065 152.891 134.09 157.815 149.053C162.988 164.766 161.672 182.04 169.755 190.993" fill="#FFB26E"/>
<path d="M162.681 129.439C156.152 131.209 160.948 158.065 162.33 167.837L163.712 177.605C163.712 177.605 159.23 154.826 157.585 148.336C155.94 141.847 154.73 136.919 155.838 132.188C156.945 127.458 158.857 127.352 158.857 127.352L161.442 128.072L162.685 129.436L162.681 129.439Z" fill="white"/>
<path d="M191.095 159.308C178.321 150.899 164.816 128.975 160.451 127.52C156.086 126.065 152.891 134.09 157.815 149.053C162.988 164.766 161.672 182.04 169.755 190.993" stroke="black" stroke-width="1.2" stroke-linecap="round" stroke-linejoin="round"/>
<path d="M185.223 73.428C193.683 81.0577 211.03 89.7477 214.375 97.5493C218.916 108.129 208.164 130.558 195.405 130.368C182.646 130.178 158.653 118.753 158.653 118.753L185.223 73.428V73.428Z" fill="#FFB26E"/>
<path d="M188.77 82.6736C204.025 91.4038 214.39 98.6497 215.432 101.896C216.474 105.146 217.892 100.09 209.666 91.6231C201.441 83.1562 187.044 74.978 187.044 74.978L188.77 82.6699V82.6736Z" fill="white"/>
<path d="M185.223 73.428C193.683 81.0577 211.03 89.7477 214.375 97.5493C218.916 108.129 208.164 130.558 195.405 130.368C182.646 130.178 158.653 118.753 158.653 118.753L185.223 73.428V73.428Z" stroke="black" stroke-width="1.2" stroke-linecap="round" stroke-linejoin="round"/>
<path d="M185.223 73.428C182.101 70.1158 175.608 63.5535 168.951 54.2202C164.751 48.3342 152.566 23.8364 147.685 22.959C142.804 22.0852 97.4683 112.019 97.4683 112.019C100.886 114.443 119.158 114.311 132.575 115.119C145.992 115.927 153.125 116.958 158.66 118.753C166.655 121.349 175.923 115.266 183.253 102.569C189.885 91.0858 190.55 78.7838 185.227 73.428H185.223Z" fill="white" stroke="black" stroke-width="1.2" stroke-linecap="round" stroke-linejoin="round"/>
<path d="M148.043 54.6917C146.614 58.779 144.822 63.0636 142.695 67.4433C141.258 70.4009 139.668 73.4024 137.931 76.4075C136.195 79.4089 134.396 82.2824 132.55 85.0024C129.823 89.0348 127 92.7345 124.178 96.0138C113.408 108.542 102.594 115.083 96.5141 111.569C87.7656 106.521 92.127 82.5895 106.261 58.1173C120.387 33.6523 138.929 17.9102 147.674 22.9553C153.754 26.4686 153.501 39.0959 148.04 54.6881L148.043 54.6917Z" fill="#FFB26E" stroke="black" stroke-width="1.2" stroke-linecap="round" stroke-linejoin="round"/>
<path d="M96.5177 111.573C91.9918 96.0541 104.272 63.1368 123.999 42.58C143.726 22.0231 152.098 32.084 152.098 32.084C152.098 32.084 152.931 47.084 140.808 71.1834C128.686 95.2827 111.847 107.698 111.847 107.698L105.632 111.281L101.687 112.747L96.5177 111.573V111.573Z" fill="black"/>
<path d="M75.449 2L85.1991 39.8308L97.4865 27.1267L119.473 66.6684L103.307 7.17303L87.8533 21.7233L75.449 2Z" fill="white" stroke="#FFB26E" stroke-width="1.2" stroke-linecap="round" stroke-linejoin="round"/>
<path d="M37.0225 43.3879L71.4716 88.333L82.5232 70.2256L114.947 81.8658L78.085 56.3223L69.0477 71.5197L37.0225 43.3879Z" fill="white" stroke="#FFB26E" stroke-width="1.2" stroke-linecap="round" stroke-linejoin="round"/>
<path d="M148.043 54.6919C145.649 61.5356 142.241 68.9424 137.931 76.4076C133.625 83.8656 128.905 90.5192 124.182 96.014C118.742 89.6966 118.53 78.4439 124.262 68.5146C129.998 58.5853 139.851 53.1381 148.04 54.6919H148.043Z" fill="#FFB26E" stroke="black" stroke-width="1.2" stroke-linecap="round" stroke-linejoin="round"/>
<path d="M142.698 67.4435C141.262 70.4011 139.671 73.4025 137.935 76.4076C136.198 79.4091 134.4 82.2826 132.553 85.0025C130.195 81.2151 129.804 76.6526 131.943 72.9492C134.082 69.2385 138.235 67.2973 142.698 67.4435Z" fill="black" stroke="black" stroke-width="1.2" stroke-linecap="round" stroke-linejoin="round"/>
<path d="M197.387 109.233C196.792 108.907 196.046 109.126 195.72 109.721C195.395 110.317 195.614 111.063 196.209 111.388L203.235 115.228C203.83 115.554 204.576 115.335 204.902 114.74C205.227 114.144 205.008 113.398 204.413 113.073L197.387 109.233Z" fill="black" stroke="black" stroke-width="1.2" stroke-linecap="round" stroke-linejoin="round"/>
<path d="M202.099 99.0496C201.561 98.6366 200.79 98.7379 200.377 99.2761C199.964 99.8142 200.065 100.585 200.604 100.998L206.955 105.873C207.493 106.287 208.264 106.185 208.677 105.647C209.09 105.109 208.989 104.338 208.45 103.925L202.099 99.0496Z" fill="black" stroke="black" stroke-width="1.2" stroke-linecap="round" stroke-linejoin="round"/>
<path d="M191.085 118.378C190.444 118.157 189.744 118.496 189.522 119.138C189.3 119.779 189.64 120.478 190.281 120.7L197.847 123.319C198.489 123.54 199.188 123.201 199.41 122.559C199.632 121.918 199.292 121.219 198.651 120.997L191.085 118.378Z" fill="black" stroke="black" stroke-width="1.2" stroke-linecap="round" stroke-linejoin="round"/>
<path d="M176.358 125.988C167.895 127.458 165.515 132.185 165.515 132.185L162.33 128.807L165.679 121.861L176.361 125.988H176.358Z" fill="black"/>
<path d="M184.902 130.368C181.151 136.108 183.6 153.151 184.902 154.332C186.203 155.513 178.365 147.565 178.365 147.565L174.49 143.065C174.49 143.065 176.676 138.612 179.769 135.384C182.862 132.156 184.902 130.368 184.902 130.368Z" fill="black"/>
<path d="M214.463 110.246C214.415 116.424 209.187 127.352 209.187 127.352L205.067 128.072C205.067 128.072 202.654 128.094 203.086 127.787C203.521 127.48 206.054 125.842 208.961 121.861C211.867 117.88 214.463 110.246 214.463 110.246V110.246Z" fill="black"/>
<path d="M275.084 230.363L253.215 250.298C251.412 251.852 249.007 252.525 246.66 252.119L178.588 242.083" stroke="#FFB26E" stroke-width="1.2" stroke-linecap="round" stroke-linejoin="round"/>
</svg>
